<?xml version="1.0" encoding="UTF-8" standalone="no"?>
<!-- Created with Inkscape (http://www.inkscape.org/) -->

<svg
   width="720"
   height="720"
   viewBox="0 0 720 720"
   version="1.1"
   id="svg1"
   xml:space="preserve"
   xmlns="http://www.w3.org/2000/svg"
   xmlns:svg="http://www.w3.org/2000/svg"><defs
     id="defs1" /><g
     id="layer1"><rect
       style="fill:#363c70;fill-opacity:1;stroke-width:1.9104;stroke-linecap:round"
       id="rect2"
       width="720.0127"
       height="720.00488"
       x="-0.0012253337"
       y="-0.0078124106" /><path
       style="fill:#f5dc3d;fill-opacity:1;stroke-width:2;stroke-linecap:round"
       d="m 393.62745,140.03268 -192.15686,194.93464 148.85621,75.6536 -25.6536,168.79084 191.33987,-194.93464 -147.38562,-75 z"
       id="path1" /><path
       style="fill:#f5dc3d;fill-opacity:1;stroke-width:2;stroke-linecap:round"
       d="m 446.36115,259.50819 c -28.63782,30.05204 -21.92031,50.55813 -21.92031,50.55813 l 59.75053,-0.35355 v -22.45064 l -30.75915,0.17678 12.19759,-16.61701 c 21.03643,-25.63262 19.62222,-38.7141 19.62222,-38.7141 0,0 4.59619,-37.83021 -31.64303,-37.83021 -36.23922,0 -28.99138,45.78516 -28.99138,45.78516 h 24.74874 l -0.35356,-19.26866 c 0,0 0.17678,-4.24264 5.30331,-4.24264 5.12652,0 5.48007,4.77297 5.48007,4.77297 0,0 3.71231,18.56156 -13.43503,38.18377 z"
       id="path2" /></g></svg>
